:FULLY-SPECIFIED
:FORCE-ALL-JOINTS-BE-3DOF
:DEGREES
170
root 6.65945 16.1049 -25.732 3.64828 31.5785 1.0845
lfemur -23.9666 30.5771 -17.706
ltibia 37.4716 -0 0
lfoot -7.46076 11.1408 0.246204
ltoes 32.2349 -0 0
rfemur -27.7753 -8.41781 -3.36895
rtibia 74.2988 -0 0
rfoot 8.67056 -24.2196 -0.559355
rtoes 45.3288 -0 0
lowerback 2.35771 -6.50542 -2.09847
upperback 0.041508 -8.73749 -1.59698
thorax -1.17085 -4.35952 -0.179908
lowerneck -9.97742 -6.58935 -1.93712
upperneck 1.93053 -8.81703 5.3555
head 2.74332 -4.21998 1.5803
lclavicle 3.43239e-14 -8.64254e-15 -8.87183e-31
lhumerus -47.9143 -41.1554 113.716
lradius 51.7028 -0 0
lwrist 13.2329 0 0
lhand 37.5675 23.7843 0.0068313
lfingers 7.12502 -0 0
lthumb 60.3481 37.1792 0.00263988
rclavicle 3.43239e-14 -8.64254e-15 -8.87183e-31
rhumerus -49.1506 -19.9845 -72.7625
rradius 91.5798 -0 0
rwrist -17.8964 0 0
rhand -23.9489 -22.1018 0.203668
rfingers 7.12502 -0 0
rthumb 2.52661 -52.0478 0.195208
171
root 6.62719 16.0859 -25.7272 3.74716 30.9935 1.19721
lfemur -23.236 30.1122 -17.1669
ltibia 36.9064 -0 0
lfoot -7.96379 10.7405 0.342303
ltoes 32.4957 -0 0
rfemur -27.8546 -8.6221 -3.46509
rtibia 73.8886 -0 0
rfoot 8.07112 -23.485 -0.778206
rtoes 45.5937 -0 0
lowerback 2.26153 -6.41634 -2.06518
upperback 0.0349259 -8.6138 -1.70464
thorax -1.13325 -4.30062 -0.316478
lowerneck -10.0123 -6.46858 -1.77655
upperneck 1.96897 -8.67449 5.29966
head 2.75395 -4.14776 1.54303
lclavicle 3.35344e-14 -9.58823e-15 -1.2327e-30
lhumerus -48.1054 -41.2631 113.75
lradius 51.7439 -0 0
lwrist 13.447 0 0
lhand 37.6228 23.8881 0.00949192
lfingers 7.12502 -0 0
lthumb 60.3944 37.2271 0.00366806
rclavicle 3.35344e-14 -9.58823e-15 -1.2327e-30
rhumerus -48.3259 -19.6981 -71.7266
rradius 90.9047 -0 0
rwrist -17.9653 0 0
rhand -24.1955 -22.7726 0.283186
rfingers 7.12502 -0 0
rthumb 2.28839 -52.7141 0.271437
172
root 6.59013 16.0641 -25.7217 3.85838 30.3211 1.32443
lfemur -22.4074 29.571 -16.5592
ltibia 36.2569 -0 0
lfoot -8.54229 10.2798 0.448324
ltoes 32.7951 -0 0
rfemur -27.9453 -8.85691 -3.57522
rtibia 73.4174 -0 0
rfoot 7.37917 -22.6385 -1.02005
rtoes 45.898 -0 0
lowerback 2.15114 -6.31395 -2.02713
upperback 0.0270784 -8.47174 -1.82827
thorax -1.09024 -4.23287 -0.473279
lowerneck -10.0518 -6.32975 -1.59226
upperneck 2.01293 -8.51073 5.23567
head 2.7661 -4.0648 1.50024
lclavicle 3.26276e-14 -1.06744e-14 -1.61348e-30
lhumerus -48.3254 -41.3868 113.789
lradius 51.7911 -0 0
lwrist 13.693 0 0
lhand 37.6864 24.0074 0.0124242
lfingers 7.12502 -0 0
lthumb 60.4477 37.2821 0.0048012
rclavicle 3.26276e-14 -1.06744e-14 -1.61348e-30
rhumerus -47.3739 -19.3864 -70.5337
rradius 90.1295 -0 0
rwrist -18.0443 0 0
rhand -24.4799 -23.5435 0.370949
rfingers 7.12502 -0 0
rthumb 2.01373 -53.4797 0.355553
173
root 6.54861 16.0397 -25.7156 3.98006 29.5676 1.46415
lfemur -21.492 28.9558 -15.8929
ltibia 35.5294 -0 0
lfoot -9.19147 9.76225 0.561576
ltoes 33.1306 -0 0
rfemur -28.0464 -9.1202 -3.69826
rtibia 72.8895 -0 0
rfoot 6.59967 -21.6866 -1.27883
rtoes 46.239 -0 0
lowerback 2.02756 -6.19915 -1.98475
upperback 0.0179212 -8.3126 -1.96676
thorax -1.04227 -4.15681 -0.648889
lowerneck -10.0956 -6.17405 -1.38594
upperneck 2.06194 -8.32719 5.16415
head 2.77963 -3.97184 1.45232
lclavicle 3.16116e-14 -1.18915e-14 -2.0197e-30
lhumerus -48.5726 -41.5252 113.834
lradius 51.8439 -0 0
lwrist 13.9686 0 0
lhand 37.7576 24.141 0.0155525
lfingers 7.12502 -0 0
lthumb 60.5074 37.3438 0.0060101
rclavicle 3.16116e-14 -1.18915e-14 -2.0197e-30
rhumerus -46.3013 -19.0596 -69.1934
rradius 89.2609 -0 0
rwrist -18.1329 0 0
rhand -24.7999 -24.4078 0.464726
rfingers 7.12502 -0 0
rthumb 1.70469 -54.338 0.44543
174
root 6.50296 16.0129 -25.7088 4.11039 28.7389 1.61449
lfemur -20.5011 28.2687 -15.1777
ltibia 34.7295 -0 0
lfoot -9.90643 9.19178 0.679318
ltoes 33.4998 -0 0
rfemur -28.157 -9.40995 -3.8331
rtibia 72.3089 -0 0
rfoot 5.73764 -20.6358 -1.54834
rtoes 46.6141 -0 0
lowerback 1.89181 -6.07282 -1.93845
upperback 0.00740828 -8.13764 -2.119
thorax -0.98981 -4.07301 -0.841886
lowerneck -10.1431 -6.00267 -1.1593
upperneck 2.11554 -8.12531 5.08574
head 2.79442 -3.8696 1.39967
lclavicle 3.04945e-14 -1.32296e-14 -2.44144e-30
lhumerus -48.8451 -41.6773 113.884
lradius 51.902 -0 0
lwrist 14.2717 0 0
lhand 37.8359 24.288 0.0188005
lfingers 7.12502 -0 0
lthumb 60.573 37.4115 0.00726523
rclavicle 3.04945e-14 -1.32296e-14 -2.44144e-30
rhumerus -45.1154 -18.7277 -67.7154
rradius 88.3059 -0 0
rwrist -18.2303 0 0
rhand -25.1533 -25.3588 0.56225
rfingers 7.12502 -0 0
rthumb 1.36338 -55.2823 0.538896
175
root 6.45351 15.9839 -25.7014 4.24767 27.8408 1.77363
lfemur -19.4459 27.5124 -14.4234
ltibia 33.8629 -0 0
lfoot -10.6822 8.57217 0.798817
ltoes 33.8995 -0 0
rfemur -28.2762 -9.72426 -3.97873
rtibia 71.6801 -0 0
rfoot 4.79829 -19.4929 -1.82238
rtoes 47.0202 -0 0
lowerback 1.74491 -5.93584 -1.88864
upperback -0.00450475 -7.94814 -2.28388
thorax -0.9333 -3.98204 -1.05085
lowerneck -10.1938 -5.81681 -0.914016
upperneck 2.17325 -7.90653 5.00106
head 2.81034 -3.75883 1.34266
lclavicle 2.92843e-14 -1.46793e-14 -2.86886e-30
lhumerus -49.1412 -41.8418 113.94
lradius 51.965 -0 0
lwrist 14.5999 0 0
lhand 37.9207 24.4471 0.0220924
lfingers 7.12502 -0 0
lthumb 60.6441 37.4849 0.00853731
rclavicle 2.92843e-14 -1.46793e-14 -2.86886e-30
rhumerus -43.8234 -18.4009 -66.1097
rradius 87.2713 -0 0
rwrist -18.3358 0 0
rhand -25.538 -26.3896 0.661261
rfingers 7.12502 -0 0
rthumb 0.991945 -56.3058 0.633781
176
root 6.40058 15.9528 -25.6935 4.39026 26.8792 1.93984
lfemur -18.3369 26.6897 -13.6393
ltibia 32.9355 -0 0
lfoot -11.5139 7.90733 0.917391
ltoes 34.3272 -0 0
rfemur -28.403 -10.0608 -4.13395
rtibia 71.0072 -0 0
rfoot 3.78699 -18.2647 -2.0948
rtoes 47.4549 -0 0
lowerback 1.58786 -5.78911 -1.83574
upperback -0.0178577 -7.74538 -2.4603
thorax -0.873199 -3.88445 -1.27435
lowerneck -10.2471 -5.61766 -0.651785
upperneck 2.23462 -7.6723 4.91073
head 2.82725 -3.64027 1.28169
lclavicle 2.79892e-14 -1.62306e-14 -3.29237e-30
lhumerus -49.4592 -42.0176 114.001
lradius 52.0324 -0 0
lwrist 14.9513 0 0
lhand 38.0114 24.6175 0.0253538
lfingers 7.12502 -0 0
lthumb 60.7202 37.5635 0.00979778
rclavicle 2.79892e-14 -1.62306e-14 -3.29237e-30
rhumerus -42.4332 -18.0895 -64.3863
rradius 86.1641 -0 0
rwrist -18.4487 0 0
rhand -25.9515 -27.4935 0.759535
rfingers 7.12502 -0 0
rthumb 0.592624 -57.4019 0.727958
177
root 6.34451 15.9198 -25.6852 4.53663 25.8603 2.11151
lfemur -17.1845 25.8037 -12.8341
ltibia 31.9531 -0 0
lfoot -12.3964 7.20121 1.03245
ltoes 34.7804 -0 0
rfemur -28.5364 -10.4178 -4.29773
rtibia 70.2943 -0 0
rfoot 2.70938 -16.9585 -2.35964
rtoes 47.9154 -0 0
lowerback 1.42169 -5.63351 -1.78016
upperback -0.0326832 -7.53062 -2.64715
thorax -0.809956 -3.78082 -1.51099
lowerneck -10.3025 -5.40643 -0.374287
upperneck 2.29919 -7.42406 4.81536
head 2.84502 -3.51466 1.21715
lclavicle 2.66172e-14 -1.78741e-14 -3.70277e-30
lhumerus -49.7973 -42.2036 114.068
lradius 52.1038 -0 0
lwrist 15.3236 0 0
lhand 38.1076 24.7979 0.028515
lfingers 7.12502 -0 0
lthumb 60.8008 37.6468 0.0110192
rclavicle 2.66172e-14 -1.78741e-14 -3.70277e-30
rhumerus -40.953 -17.8032 -62.5556
rradius 84.9912 -0 0
rwrist -18.5683 0 0
rhand -26.3916 -28.6636 0.854927
rfingers 7.12502 -0 0
rthumb 0.167713 -58.5638 0.81937
178
root 6.28564 15.8852 -25.6764 4.68541 24.7898 2.28716
lfemur -15.9984 24.858 -12.0162
ltibia 30.9214 -0 0
lfoot -13.3246 6.45785 1.14155
ltoes 35.2562 -0 0
rfemur -28.6755 -10.793 -4.46901
rtibia 69.5456 -0 0
rfoot 1.57133 -15.5813 -2.6112
rtoes 48.3989 -0 0
lowerback 1.2474 -5.46994 -1.72229
upperback -0.0490041 -7.30515 -2.84333
thorax -0.744012 -3.67171 -1.75933
lowerneck -10.3597 -5.18432 -0.0831974
upperneck 2.36652 -7.16327 4.71557
head 2.86352 -3.38272 1.14943
lclavicle 2.51765e-14 -1.95999e-14 -4.09137e-30
lhumerus -50.1539 -42.3987 114.14
lradius 52.1787 -0 0
lwrist 15.7144 0 0
lhand 38.2086 24.9875 0.0315085
lfingers 7.12502 -0 0
lthumb 60.8855 37.7342 0.0121759
rclavicle 2.51765e-14 -1.95999e-14 -4.09137e-30
rhumerus -39.3915 -17.5511 -60.6284
rradius 83.7595 -0 0
rwrist -18.6939 0 0
rhand -26.8558 -29.8932 0.945402
rfingers 7.12502 -0 0
rthumb -0.280403 -59.7845 0.906067
179
root 6.22428 15.8492 -25.6673 4.83531 23.6739 2.4654
lfemur -14.7876 23.8566 -11.1934
ltibia 29.8463 -0 0
lfoot -14.2934 5.68138 1.24241
ltoes 35.7522 -0 0
rfemur -28.8195 -11.1844 -4.64676
rtibia 68.7655 -0 0
rfoot 0.379033 -14.1409 -2.84414
rtoes 48.9029 -0 0
lowerback 1.06599 -5.2993 -1.66254
upperback -0.0668317 -7.07025 -3.04774
thorax -0.675803 -3.5577 -2.01797
lowerneck -10.418 -4.95247 0.219921
upperneck 2.43615 -6.89136 4.61197
head 2.88264 -3.2452 1.07891
lclavicle 2.36751e-14 -2.13984e-14 -4.45016e-30
lhumerus -50.527 -42.6015 114.216
lradius 52.2569 -0 0
lwrist 16.1218 0 0
lhand 38.3139 25.185 0.0342725
lfingers 7.12502 -0 0
lthumb 60.9737 37.8253 0.0132438
rclavicle 2.36751e-14 -2.13984e-14 -4.45016e-30
rhumerus -37.7578 -17.3419 -58.6156
rradius 82.4759 -0 0
rwrist -18.8248 0 0
rhand -27.3415 -31.1754 1.02906
rfingers 7.12502 -0 0
rthumb -0.749258 -61.0575 0.986233
180
root 6.16077 15.8119 -25.6579 4.9852 22.5184 2.64501
lfemur -13.5606 22.8039 -10.3728
ltibia 28.7335 -0 0
lfoot -15.2975 4.87601 1.33295
ltoes 36.2655 -0 0
rfemur -28.9675 -11.5901 -4.82995
rtibia 67.958 -0 0
rfoot -0.861036 -12.6449 -3.05358
rtoes 49.4245 -0 0
lowerback 0.878495 -5.1225 -1.60128
upperback -0.0861634 -6.82718 -3.25929
thorax -0.605757 -3.43937 -2.28549
lowerneck -10.477 -4.71226 0.53319
upperneck 2.50766 -6.6098 4.50515
head 2.90225 -3.10284 1.00597
lclavicle 2.21211e-14 -2.32599e-14 -4.77188e-30
lhumerus -50.9147 -42.8111 114.298
lradius 52.3377 -0 0
lwrist 16.5433 0 0
lhand 38.4229 25.3894 0.0367511
lfingers 7.12502 -0 0
lthumb 61.065 37.9196 0.0142014
rclavicle 2.21211e-14 -2.32599e-14 -4.77188e-30
rhumerus -36.0615 -17.1831 -56.5288
rradius 81.1474 -0 0
rwrist -18.9603 0 0
rhand -27.846 -32.5032 1.10419
rfingers 7.12502 -0 0
rthumb -1.2363 -62.3756 1.05821
181
root 6.09545 15.7735 -25.6481 5.13405 21.3294 2.82486
lfemur -12.3252 21.7046 -9.56054
ltibia 27.5888 -0 0
lfoot -16.3315 4.04603 1.41134
ltoes 36.7934 -0 0
rfemur -29.1185 -12.0078 -5.01753
rtibia 67.1274 -0 0
rfoot -2.14212 -11.1015 -3.23516
rtoes 49.961 -0 0
lowerback 0.685846 -4.9404 -1.53889
upperback -0.106981 -6.57722 -3.47687
thorax -0.534291 -3.31732 -2.56049
lowerneck -10.5363 -4.46484 0.85506
upperneck 2.58062 -6.32003 4.3957
head 2.92222 -2.95637 0.931009
lclavicle 2.05226e-14 -2.51747e-14 -5.05014e-30
lhumerus -51.3154 -43.0262 114.384
lradius 52.4209 -0 0
lwrist 16.977 0 0
lhand 38.535 25.5998 0.0388949
lfingers 7.12502 -0 0
lthumb 61.1589 38.0166 0.0150297
rclavicle 2.05226e-14 -2.51747e-14 -5.05014e-30
rhumerus -34.3127 -17.0816 -54.3795
rradius 79.7808 -0 0
rwrist -19.0997 0 0
rhand -28.3666 -33.8697 1.16924
rfingers 7.12502 -0 0
rthumb -1.73888 -63.7322 1.12055
182
root 6.02864 15.7343 -25.6382 5.28099 20.1129 3.00395
lfemur -11.0885 20.564 -8.76245
ltibia 26.4181 -0 0
lfoot -17.3903 3.19579 1.476
ltoes 37.3334 -0 0
rfemur -29.2717 -12.4356 -5.20853
rtibia 66.2779 -0 0
rfoot -3.45717 -9.51879 -3.38511
rtoes 50.5098 -0 0
lowerback 0.489069 -4.75394 -1.47573
upperback -0.129251 -6.32165 -3.69939
thorax -0.461814 -3.19213 -2.84156
lowerneck -10.5955 -4.21145 1.18389
upperneck 2.65463 -6.02352 4.28421
head 2.94245 -2.80654 0.854401
lclavicle 1.88876e-14 -2.71331e-14 -5.27948e-30
lhumerus -51.7272 -43.2458 114.474
lradius 52.506 -0 0
lwrist 17.4206 0 0
lhand 38.6497 25.8149 0.0406618
lfingers 7.12502 -0 0
lthumb 61.255 38.1158 0.0157124
rclavicle 1.88876e-14 -2.71331e-14 -5.27948e-30
rhumerus -32.522 -17.0426 -52.1799
rradius 78.3831 -0 0
rwrist -19.2422 0 0
rhand -28.9006 -35.2679 1.22292
rfingers 7.12502 -0 0
rthumb -2.2543 -65.1202 1.17197
